<mxfile host="drawio-plugin" modified="2024-05-07T09:13:20.908Z" agent="5.0 (Windows NT 10.0; Win64; x64) AppleWebKit/537.36 (KHTML, like Gecko) Chrome/122.0.0.0 Safari/537.36" version="20.5.3" etag="zA-32mH_lMPL2mDfBt92" type="embed"><diagram id="fjTDwByX6HFb_Nq4sKJg" name="Page-1"><mxGraphModel dx="2063" dy="1132" grid="1" gridSize="10" guides="1" tooltips="1" connect="1" arrows="1" fold="1" page="1" pageScale="1" pageWidth="850" pageHeight="1100" math="0" shadow="0"><root><mxCell id="0"/><mxCell id="1" parent="0"/><mxCell id="2" value="DatabseDetails" style="rounded=0;whiteSpace=wrap;html=1;" vertex="1" parent="1"><mxGeometry x="220" y="120" width="120" height="60" as="geometry"/></mxCell><mxCell id="3" value="" style="endArrow=classic;html=1;rounded=0;exitX=1;exitY=0.5;exitDx=0;exitDy=0;entryX=0;entryY=0.5;entryDx=0;entryDy=0;" edge="1" parent="1" source="2" target="4"><mxGeometry width="50" height="50" relative="1" as="geometry"><mxPoint x="500" y="300" as="sourcePoint"/><mxPoint x="440" y="150" as="targetPoint"/></mxGeometry></mxCell><mxCell id="4" value="Tool" style="rounded=0;whiteSpace=wrap;html=1;" vertex="1" parent="1"><mxGeometry x="400" y="120" width="120" height="60" as="geometry"/></mxCell><mxCell id="5" value="PlatformUser" style="rounded=0;whiteSpace=wrap;html=1;" vertex="1" parent="1"><mxGeometry x="400" y="240" width="120" height="60" as="geometry"/></mxCell><mxCell id="6" value="If PI is in PlatformUser get id&lt;br&gt;&amp;nbsp;if not insert PI" style="whiteSpace=wrap;html=1;aspect=fixed;" vertex="1" parent="1"><mxGeometry x="400" y="360" width="120" height="120" as="geometry"/></mxCell><mxCell id="7" value="" style="shape=flexArrow;endArrow=classic;startArrow=classic;html=1;rounded=0;exitX=0.5;exitY=0;exitDx=0;exitDy=0;entryX=0.5;entryY=1;entryDx=0;entryDy=0;" edge="1" parent="1" source="6" target="5"><mxGeometry width="100" height="100" relative="1" as="geometry"><mxPoint x="390" y="380" as="sourcePoint"/><mxPoint x="490" y="280" as="targetPoint"/></mxGeometry></mxCell><mxCell id="8" value="if&amp;nbsp;" style="rounded=0;whiteSpace=wrap;html=1;" vertex="1" parent="1"><mxGeometry x="560" y="360" width="120" height="60" as="geometry"/></mxCell></root></mxGraphModel></diagram></mxfile>